<svg width="49" height="49" viewBox="0 0 49 49" fill="none" xmlns="http://www.w3.org/2000/svg">
<path d="M41.5286 0.470703H7.04066C5.24888 0.470703 3.53045 1.18249 2.26346 2.44948C0.996457 3.7165 0.284668 5.4349 0.284668 7.22671V41.7147C0.284668 43.5066 0.996457 45.225 2.26346 46.4919C3.53045 47.7588 5.24888 48.4707 7.04066 48.4707H22.7367V30.9507H16.8027V24.1167H22.7367V19.0827C22.7367 16.2297 23.5257 14.0127 25.1037 12.4377C26.6817 10.8597 28.8207 10.0677 31.5236 10.0677C34.2296 10.0677 35.9816 10.1727 36.7826 10.3707V16.4547H33.1766C31.8746 16.4547 30.9866 16.7307 30.5096 17.2827C30.0356 17.8317 29.7986 18.6597 29.7986 19.7607V24.1167H36.5576L35.6576 30.9507H29.7986V48.4707H41.5286C43.3205 48.4707 45.0389 47.7588 46.3058 46.4919C47.573 45.225 48.2846 43.5066 48.2846 41.7147V7.22671C48.2846 5.4349 47.573 3.7165 46.3058 2.44948C45.0389 1.18249 43.3205 0.470703 41.5286 0.470703Z" fill="white"/>
</svg>
