<svg width="52" height="52" viewBox="0 0 52 52" fill="none" xmlns="http://www.w3.org/2000/svg">
<path d="M25.9 13.0356C18.7024 13.0356 12.7387 18.8965 12.7387 26.1969C12.7387 33.4973 18.5996 39.3582 25.9 39.3582C33.2004 39.3582 39.0613 33.3945 39.0613 26.1969C39.0613 18.9994 33.0976 13.0356 25.9 13.0356ZM25.9 34.6284C21.273 34.6284 17.4685 30.8239 17.4685 26.1969C17.4685 21.5699 21.273 17.7655 25.9 17.7655C30.527 17.7655 34.3315 21.5699 34.3315 26.1969C34.3315 30.8239 30.527 34.6284 25.9 34.6284Z" fill="white"/>
<path d="M39.5754 15.7088C41.2222 15.7088 42.5572 14.3738 42.5572 12.727C42.5572 11.0801 41.2222 9.74512 39.5754 9.74512C37.9286 9.74512 36.5935 11.0801 36.5935 12.727C36.5935 14.3738 37.9286 15.7088 39.5754 15.7088Z" fill="white"/>
<path d="M47.2871 5.01553C44.6137 2.23932 40.8093 0.799805 36.4907 0.799805H15.3093C6.3637 0.799805 0.399994 6.76351 0.399994 15.7091V36.7877C0.399994 41.2091 1.83951 45.0135 4.71854 47.7897C7.49475 50.4631 11.1964 51.7998 15.4121 51.7998H36.3879C40.8093 51.7998 44.5109 50.3603 47.1843 47.7897C49.9605 45.1163 51.4 41.3119 51.4 36.8905V15.7091C51.4 11.3905 49.9605 7.68892 47.2871 5.01553ZM46.8758 36.8905C46.8758 40.078 45.7448 42.6486 43.8939 44.3966C42.0431 46.1446 39.4726 47.07 36.3879 47.07H15.4121C12.3274 47.07 9.75685 46.1446 7.90604 44.3966C6.05524 42.5458 5.12983 39.9752 5.12983 36.7877V15.7091C5.12983 12.6244 6.05524 10.0538 7.90604 8.20303C9.65403 6.45505 12.3274 5.52964 15.4121 5.52964H36.5935C39.6782 5.52964 42.2488 6.45505 44.0996 8.30585C45.8476 10.1567 46.8758 12.7272 46.8758 15.7091V36.8905Z" fill="white"/>
</svg>
