<svg width="45" height="45" viewBox="0 0 45 45" fill="none" xmlns="http://www.w3.org/2000/svg">
<path d="M41.3179 0.198242H3.4275C1.61394 0.198242 0.143127 1.63397 0.143127 3.40345V41.7373C0.143127 43.5059 1.61394 44.9416 3.4275 44.9416H41.3179C43.1341 44.9416 44.605 43.505 44.605 41.7373V3.40345C44.605 1.63307 43.1332 0.198242 41.3179 0.198242ZM13.6198 37.6541H6.90438V17.4504H13.6198V37.6541ZM10.2625 14.6905H10.2175C7.96499 14.6905 6.50767 13.1387 6.50767 11.2001C6.50767 9.21835 8.00997 7.70975 10.3066 7.70975C12.6041 7.70975 14.0174 9.21835 14.0624 11.2001C14.0624 13.1387 12.6032 14.6905 10.2625 14.6905ZM37.8356 37.6541H31.1202V26.843C31.1202 24.128 30.1487 22.2749 27.7189 22.2749C25.864 22.2749 24.7593 23.5244 24.2726 24.7316C24.0954 25.1625 24.0522 25.7653 24.0522 26.3698V37.6532H17.3368C17.3368 37.6532 17.425 19.3431 17.3368 17.4495H24.0522V20.3093C24.9446 18.9329 26.5405 16.9727 30.1055 16.9727C34.5233 16.9727 37.8365 19.8613 37.8365 26.0675V37.6541H37.8356Z" fill="white"/>
</svg>
